<?xml version="1.0" encoding="iso-8859-1"?>
<!-- Generator: Adobe Illustrator 19.0.0, SVG Export Plug-In . SVG Version: 6.00 Build 0)  -->
<svg version="1.1" id="Layer_1" xmlns="http://www.w3.org/2000/svg" xmlns:xlink="http://www.w3.org/1999/xlink" x="0px" y="0px"
	 viewBox="0 0 301.149 301.149" style="enable-background:new 0 0 301.149 301.149;" xml:space="preserve">
<g>
	<path style="fill:#51B3DA;" d="M174.751,266.703h-48.353c-17.427,0-31.555-14.128-31.555-31.555v-41.666h111.463v41.666
		C206.306,252.575,192.179,266.703,174.751,266.703z"/>
	<path style="fill:#FFDA79;" d="M174.751,266.703h-48.353c-0.933,0-1.854-0.048-2.767-0.128c0,0.043-0.003,0.085-0.003,0.128
		c0,14.882,12.064,26.946,26.946,26.946c14.882,0,26.946-12.064,26.946-26.946c0-0.043-0.003-0.085-0.003-0.128
		C176.605,266.654,175.684,266.703,174.751,266.703z"/>
	<path style="fill:#FFDA79;" d="M150.575,7.5c-56.11,0-101.596,45.486-101.596,101.596c0,35.528,18.241,66.791,45.864,84.95v-0.565
		h111.463v0.565c27.623-18.159,45.864-49.422,45.864-84.95C252.171,52.986,206.685,7.5,150.575,7.5z"/>
	<g>
		<path style="fill:#C7E9F4;" d="M191.021,88.262h-33.474c-2.043,0-3.574-1.873-3.167-3.875l9.644-47.478
			c0.701-3.449-3.836-5.374-5.83-2.474l-50.729,73.787c-1.474,2.144,0.061,5.063,2.663,5.063h33.474
			c2.043,0,3.574,1.873,3.167,3.875l-9.644,47.478c-0.701,3.449,3.836,5.374,5.83,2.474l50.729-73.787
			C195.158,91.18,193.623,88.262,191.021,88.262z"/>
		<g>
			<path style="fill:#13829B;" d="M259.67,109.096C259.67,48.94,210.73,0,150.575,0C90.419,0,41.479,48.94,41.479,109.096
				c0,35.477,17.072,68.402,45.864,88.895v37.157c0,18.218,12.536,33.527,29.37,37.838c2.963,16.002,17.014,28.163,33.862,28.163
				c16.848,0,30.899-12.161,33.862-28.163c16.866-4.319,29.37-19.645,29.37-37.838v-37.157
				C242.598,177.499,259.67,144.574,259.67,109.096z M150.575,286.149c-8.065,0-15.001-4.936-17.942-11.946h35.883
				C165.575,281.213,158.64,286.149,150.575,286.149z M198.806,235.148c0,13.352-10.893,24.055-24.055,24.055
				c-51.791,0-48.697,0.054-50.473-0.1c-0.01-0.001-0.021,0-0.031-0.001c-7.319-0.652-13.703-4.593-17.662-10.333h23.387
				c4.142,0,7.5-3.358,7.5-7.5c0-4.142-3.358-7.5-7.5-7.5h-27.629v-7.352h48.231c4.143,0,7.5-3.358,7.5-7.5
				c0-4.142-3.357-7.5-7.5-7.5h-48.231v-10.435h96.463V235.148z M204.824,185.981H96.325
				c-25.011-17.664-39.846-46.169-39.846-76.885C56.479,57.211,98.69,15,150.575,15s94.096,42.211,94.096,94.096
				C244.67,139.812,229.835,168.317,204.824,185.981z"/>
			<path style="fill:#13829B;" d="M191.021,80.762h-28.252l8.605-42.361c2.318-11.413-12.747-17.836-19.36-8.215l-50.728,73.787
				c-4.9,7.127,0.231,16.812,8.843,16.812h28.251l-8.604,42.359c-2.321,11.425,12.754,17.825,19.36,8.216l50.728-73.786
				C204.757,90.46,199.652,80.762,191.021,80.762z M148.646,145.595l5.473-26.942c1.351-6.655-3.738-12.868-10.517-12.868h-25.36
				l34.26-49.833l-5.473,26.944c-1.35,6.655,3.739,12.866,10.517,12.866h25.36L148.646,145.595z"/>
		</g>
	</g>
</g>
<g>
</g>
<g>
</g>
<g>
</g>
<g>
</g>
<g>
</g>
<g>
</g>
<g>
</g>
<g>
</g>
<g>
</g>
<g>
</g>
<g>
</g>
<g>
</g>
<g>
</g>
<g>
</g>
<g>
</g>
</svg>
