<?xml version="1.0" encoding="iso-8859-1"?>
<!-- Generator: Adobe Illustrator 19.0.0, SVG Export Plug-In . SVG Version: 6.00 Build 0)  -->
<svg version="1.1" id="Layer_1" xmlns="http://www.w3.org/2000/svg" xmlns:xlink="http://www.w3.org/1999/xlink" x="0px" y="0px"
	 viewBox="0 0 392.601 392.601" style="enable-background:new 0 0 392.601 392.601;" xml:space="preserve">
<path style="fill:#FFFFFF;" d="M297.349,227.106H95.458c-14.545-0.97-19.459-14.287-13.964-24.242L182.472,29.934
	c7.111-10.667,21.204-10.667,27.927,0l100.913,172.929C317.389,213.918,309.632,227.17,297.349,227.106z"/>
<polygon style="fill:#FFC10D;" points="105.349,205.32 196.436,49.198 287.587,205.32 "/>
<rect x="178.012" y="248.891" style="fill:#56ACE0;" width="36.913" height="121.794"/>
<g>
	<path style="fill:#194F82;" d="M196.436,154.055c-6.012,0-10.925-4.848-10.925-10.925V93.675c0-6.012,4.848-10.925,10.925-10.925
		c6.077,0,10.925,4.848,10.925,10.925v49.455C207.361,149.207,202.513,154.055,196.436,154.055z"/>
	<path style="fill:#194F82;" d="M196.436,194.976c-6.012,0-10.925-4.848-10.925-10.925v-9.051c0-6.012,4.848-10.925,10.925-10.925
		c6.077,0,10.925,4.848,10.925,10.925v9.051C207.361,190.063,202.513,194.976,196.436,194.976z"/>
	<path style="fill:#194F82;" d="M330.125,191.873L229.212,18.944c-13.123-24.048-49.39-26.44-65.552,0L62.682,191.873
		c-11.83,17.455-4.719,54.626,32.776,57.083h60.638V370.75h-31.547c-6.012,0-10.925,4.848-10.925,10.925s4.848,10.925,10.925,10.925
		h143.644c6.012,0,10.925-4.848,10.925-10.925c0-6.012-4.848-10.925-10.925-10.925h-31.547V248.956h60.638
		C331.935,249.021,342.601,212.495,330.125,191.873z M214.925,370.75h-36.913V248.956h36.913V370.75z M297.349,227.106H95.458
		c-14.545-1.034-19.459-14.287-13.964-24.242L182.472,29.934c7.111-10.667,21.204-10.667,27.927,0l100.913,172.929
		C317.389,213.918,309.696,227.17,297.349,227.106z"/>
</g>
<g>
</g>
<g>
</g>
<g>
</g>
<g>
</g>
<g>
</g>
<g>
</g>
<g>
</g>
<g>
</g>
<g>
</g>
<g>
</g>
<g>
</g>
<g>
</g>
<g>
</g>
<g>
</g>
<g>
</g>
</svg>
