<?xml version="1.0" encoding="iso-8859-1"?>
<!-- Generator: Adobe Illustrator 19.0.0, SVG Export Plug-In . SVG Version: 6.00 Build 0)  -->
<svg version="1.1" id="Layer_1" xmlns="http://www.w3.org/2000/svg" xmlns:xlink="http://www.w3.org/1999/xlink" x="0px" y="0px"
	 viewBox="0 0 498.4 498.4" style="enable-background:new 0 0 498.4 498.4;" xml:space="preserve">
<path style="fill:#009AAF;" d="M333.6,426.4v-20.8c0-10.4-5.6-19.2-16-19.2s-16,8.8-16,19.2v20.8h-48v-20.8c0-10.4-5.6-19.2-16-19.2
	s-16,8.8-16,19.2v20.8h-48v-20.8c0-10.4-5.6-19.2-16-19.2s-16,8.8-16,19.2v20.8h-48v-20.8c0-10.4-5.6-19.2-16-19.2s-16,8.8-16,19.2
	v20.8l0,0v72h272V426.4L333.6,426.4z"/>
<path style="fill:#006884;" d="M333.6,498.4v-72l0,0v-20.8c0-10.4-5.6-19.2-16-19.2s-16,8.8-16,19.2v20.8h-48v-20.8
	c0-10.4-5.6-19.2-16-19.2s-16,8.8-16,19.2v20.8h-48v-20.8c0-10.4-5.6-19.2-16-19.2s-16,8.8-16,19.2v20.8h-48"/>
<path style="fill:#EAAA0A;" d="M125.6,418.4v-348c0-4.8-3.2-8.8-8-8.8s-8,4-8,8.8v348H125.6z"/>
<circle style="fill:#FF5512;" cx="116" cy="24.8" r="24.8"/>
<ellipse transform="matrix(0.6454 -0.7638 0.7638 0.6454 27.7038 83.7364)" style="fill:#FFCDBD;" cx="104.044" cy="12.029" rx="9.6" ry="3.2"/>
<path style="fill:#CC3006;" d="M133.6,7.2c9.6,9.6,9.6,25.6,0,35.2s-25.6,9.6-35.2,0"/>
<g>
	<polygon style="fill:#FF5512;" points="133.6,72.8 133.6,191.2 349.6,131.2 	"/>
	<polygon style="fill:#FF5512;" points="277.6,185.6 277.6,273.6 436.8,229.6 	"/>
</g>
<polygon style="fill:#CC3006;" points="349.6,131.2 349.6,205.6 215.2,168 "/>
<g>
	<circle style="fill:#FFFFFF;" cx="141.6" cy="468" r="8.8"/>
	<circle style="fill:#FFFFFF;" cx="197.6" cy="468" r="8.8"/>
	<circle style="fill:#FFFFFF;" cx="253.6" cy="468" r="8.8"/>
</g>
<g>
</g>
<g>
</g>
<g>
</g>
<g>
</g>
<g>
</g>
<g>
</g>
<g>
</g>
<g>
</g>
<g>
</g>
<g>
</g>
<g>
</g>
<g>
</g>
<g>
</g>
<g>
</g>
<g>
</g>
</svg>
